<svg width="894" height="894" xmlns="http://www.w3.org/2000/svg">
  <g>
    <title>Layer 1</title>
    <g stroke="null" id="svg_4">
      <path stroke="null" id="svg_5" class="cls-1"
        d="m409.15246,312.36477c1.9092,-4.73545 5.94849,-7.03918 8.96219,-10.17481c20.87495,-21.66148 41.27654,-43.85089 63.54,-64.04054c33.59242,-30.44445 83.73647,-30.0605 116.28751,1.34384c28.57485,27.56479 56.97615,55.44954 83.59447,84.9181c38.5942,42.71502 52.65284,93.86106 44.4638,151.21438c-5.45936,38.17155 -22.40546,70.63177 -47.87195,98.85248c-1.00982,1.11987 -1.97231,3.18363 -3.64483,2.35173c-2.36677,-1.16786 -0.53647,-3.19963 -0.03156,-4.70345c13.11193,-40.25131 2.38255,-73.95938 -26.79188,-103.07599c-35.10715,-35.05192 -69.78828,-70.53578 -104.70609,-105.77967c-11.67609,-11.79063 -22.97349,-24.0612 -35.40694,-35.00392c-27.56503,-24.26917 -58.94846,-29.05261 -93.09312,-16.54207c-1.42006,0.51194 -2.72968,1.64781 -5.31735,0.62393l0.01578,0.016z"
        fill="#c5db65" stroke-width="0px" />
      <path stroke="null" id="svg_6" class="cls-4"
        d="m485.48882,582.68527c-7.9208,8.11105 -14.83179,15.31022 -21.86899,22.38139c-15.35248,15.4222 -30.86274,30.70042 -46.16788,46.17062c-34.58646,34.93993 -87.52331,35.93181 -122.75669,1.58382c-28.59063,-27.88475 -57.60729,-55.41754 -84.03626,-85.39805c-62.34083,-70.71176 -59.27981,-180.81093 6.10628,-248.49904c1.00982,-1.03988 2.28788,-1.80779 4.65466,-3.64757c-2.72968,10.35079 -5.69604,19.02178 -6.65852,28.22071c-2.84013,27.22883 4.14974,51.88195 22.75259,71.2397c47.6195,49.54623 96.20148,98.14856 144.64146,146.87888c24.80379,24.97309 54.62515,32.74818 88.59625,24.76511c4.41798,-1.03988 8.31527,-4.11152 14.75289,-3.69557l-0.01578,0z"
        stroke-width="0px" fill="#0c4122" />
      <path stroke="null" id="svg_7" class="cls-2"
        d="m649.23804,603.27487c-24.18843,24.09319 -48.02974,48.53834 -72.01305,72.85551c-29.96336,30.30047 -65.95411,48.73032 -107.89335,53.59375c-38.86243,4.47948 -75.64211,-2.28773 -109.59743,-21.21353c28.3224,3.23162 57.55995,0.97589 85.37744,-6.28727c9.688,-3.02365 19.23399,-6.49524 28.51174,-10.57477c19.8809,-8.78298 38.97288,-19.93368 54.54626,-35.32388c14.21642,-14.03037 24.45667,-31.29235 31.05208,-50.13816c-3.06103,4.19151 -6.27984,8.35103 -9.78267,12.43055c-50.17561,58.3292 -130.6775,88.32571 -203.2428,81.60649c-9.43554,-6.30327 -18.17683,-13.43843 -25.02469,-23.22929c6.65852,1.47183 13.26971,3.37561 20.03869,4.3195c30.51561,4.3195 57.02348,-4.67146 78.86092,-26.50891c42.22325,-42.23508 84.03626,-84.87011 126.03862,-127.34516c7.5579,-7.66311 15.74694,-14.76628 22.31079,-23.35728c20.92228,-27.32482 23.99909,-57.4813 13.26971,-89.71755c-0.34713,-1.05588 -0.8047,-2.09576 -1.10449,-3.18363c-0.11045,-0.35196 0.2209,-0.8159 0.48913,-1.7118c4.07085,1.43983 6.0905,5.19939 8.8044,7.91908c21.58498,21.53349 43.87999,42.47505 64.31315,65.12841c31.08364,34.47598 28.08572,87.86176 -4.93867,120.73793l-0.01578,0z"
        stroke-width="0px" fill="#88c243" />
      <path stroke="null" id="svg_8" class="cls-5"
        d="m572.55456,215.51206c-1.60941,3.37561 -5.04912,0.04799 -7.5579,-0.57593c-37.03213,-9.02295 -68.66801,0.032 -95.12855,28.09273c-13.03304,13.83839 -27.02856,26.81288 -40.36139,40.37929c-25.95562,26.38093 -51.62724,53.08181 -77.67753,79.35075c-9.15153,9.24692 -18.98153,17.94991 -26.90233,28.22071c-20.30692,26.34893 -23.49418,55.83349 -13.25394,87.15784c0.50491,1.48783 1.0256,2.95966 1.4674,4.46348c0.04734,0.12799 -0.2209,0.38396 -0.34713,0.62393c-2.17743,0.43195 -3.13992,-1.40784 -4.32331,-2.5757c-21.19052,-20.98955 -42.75972,-41.62715 -63.38221,-63.17664c-26.14497,-27.32482 -33.18218,-59.49707 -20.62249,-95.58886c3.67639,-10.55877 9.688,-19.96567 17.43524,-27.90075c25.78206,-26.31693 51.54834,-52.61787 77.69331,-78.53485c28.82731,-28.52468 63.38221,-45.89865 103.44381,-50.90607c45.14227,-5.66334 85.96124,3.77556 122.40956,27.66078c-19.66,-4.20751 -39.96693,-5.87132 -60.08451,-4.97542c-10.08246,0.92789 -20.14914,2.33573 -30.07381,4.38349c-21.22208,4.43148 -42.1917,11.37467 -60.55786,23.1653c-16.75676,10.73475 -30.31049,25.50103 -40.61385,42.55504c3.86573,-3.4556 7.85769,-6.8472 12.11788,-10.11082c55.52452,-42.42706 130.85106,-56.58541 196.45804,-42.31507c1.65674,1.31185 3.29771,2.68769 4.93867,4.11152c2.09854,1.79179 6.13783,3.93554 4.87555,6.49524l0.04734,0z"
        stroke-width="0px" fill="#2d6432" />
    </g>
  </g>
</svg>