<?xml version="1.0" encoding="UTF-8"?>
<svg id="_图层_1" data-name="图层 1" xmlns="http://www.w3.org/2000/svg" viewBox="0 0 893.5 893.5">
  <defs>
    <style>
      .cls-1 {
        fill: #c5db65;
      }

      .cls-1, .cls-2, .cls-3, .cls-4, .cls-5 {
        stroke-width: 0px;
      }

      .cls-2 {
        fill: #88c243;
      }

      .cls-3 {
        fill: #fff;
      }

      .cls-6 {
        letter-spacing: -.03em;
      }

      .cls-4 {
        fill: #0c4122;
      }

      .cls-5 {
        fill: #2d6432;
      }

      .cls-7 {
        letter-spacing: -.03em;
      }

      .cls-8 {
        letter-spacing: 0em;
      }

      .cls-9 {
        fill: #231815;
        font-family: Croogla4F, 'Croogla 4F';
        font-size: 128.33px;
      }
    </style>
  </defs>
  <rect class="cls-3" width="893.5" height="893.5"/>
  <g>
    <g>
      <path class="cls-1" d="M410.5,298.95c1.21-2.96,3.77-4.4,5.68-6.36,13.23-13.54,26.16-27.41,40.27-40.03,21.29-19.03,53.07-18.79,73.7.84,18.11,17.23,36.11,34.66,52.98,53.08,24.46,26.7,33.37,58.67,28.18,94.52-3.46,23.86-14.2,44.15-30.34,61.79-.64.7-1.25,1.99-2.31,1.47-1.5-.73-.34-2-.02-2.94,8.31-25.16,1.51-46.23-16.98-64.43-22.25-21.91-44.23-44.09-66.36-66.12-7.4-7.37-14.56-15.04-22.44-21.88-17.47-15.17-37.36-18.16-59-10.34-.9.32-1.73,1.03-3.37.39Z"/>
      <path class="cls-4" d="M458.88,467.92c-5.02,5.07-9.4,9.57-13.86,13.99-9.73,9.64-19.56,19.19-29.26,28.86-21.92,21.84-55.47,22.46-77.8.99-18.12-17.43-36.51-34.64-53.26-53.38-39.51-44.2-37.57-113.02,3.87-155.33.64-.65,1.45-1.13,2.95-2.28-1.73,6.47-3.61,11.89-4.22,17.64-1.8,17.02,2.63,32.43,14.42,44.53,30.18,30.97,60.97,61.35,91.67,91.81,15.72,15.61,34.62,20.47,56.15,15.48,2.8-.65,5.27-2.57,9.35-2.31Z"/>
      <path class="cls-2" d="M562.66,480.79c-15.33,15.06-30.44,30.34-45.64,45.54-18.99,18.94-41.8,30.46-68.38,33.5-24.63,2.8-47.94-1.43-69.46-13.26,17.95,2.02,36.48.61,54.11-3.93,6.14-1.89,12.19-4.06,18.07-6.61,12.6-5.49,24.7-12.46,34.57-22.08,9.01-8.77,15.5-19.56,19.68-31.34-1.94,2.62-3.98,5.22-6.2,7.77-31.8,36.46-82.82,55.21-128.81,51.01-5.98-3.94-11.52-8.4-15.86-14.52,4.22.92,8.41,2.11,12.7,2.7,19.34,2.7,36.14-2.92,49.98-16.57,26.76-26.4,53.26-53.05,79.88-79.6,4.79-4.79,9.98-9.23,14.14-14.6,13.26-17.08,15.21-35.93,8.41-56.08-.22-.66-.51-1.31-.7-1.99-.07-.22.14-.51.31-1.07,2.58.9,3.86,3.25,5.58,4.95,13.68,13.46,27.81,26.55,40.76,40.71,19.7,21.55,17.8,54.92-3.13,75.47Z"/>
      <path class="cls-5" d="M514.06,238.41c-1.02,2.11-3.2.03-4.79-.36-23.47-5.64-43.52.02-60.29,17.56-8.26,8.65-17.13,16.76-25.58,25.24-16.45,16.49-32.72,33.18-49.23,49.6-5.8,5.78-12.03,11.22-17.05,17.64-12.87,16.47-14.89,34.9-8.4,54.48.32.93.65,1.85.93,2.79.03.08-.14.24-.22.39-1.38.27-1.99-.88-2.74-1.61-13.43-13.12-27.1-26.02-40.17-39.49-16.57-17.08-21.03-37.19-13.07-59.75,2.33-6.6,6.14-12.48,11.05-17.44,16.34-16.45,32.67-32.89,49.24-49.09,18.27-17.83,40.17-28.69,65.56-31.82,28.61-3.54,54.48,2.36,77.58,17.29-12.46-2.63-25.33-3.67-38.08-3.11-6.39.58-12.77,1.46-19.06,2.74-13.45,2.77-26.74,7.11-38.38,14.48-10.62,6.71-19.21,15.94-25.74,26.6,2.45-2.16,4.98-4.28,7.68-6.32,35.19-26.52,82.93-35.37,124.51-26.45,1.05.82,2.09,1.68,3.13,2.57,1.33,1.12,3.89,2.46,3.09,4.06Z"/>
    </g>
    <text class="cls-9" transform="translate(174.95 673.95)"><tspan class="cls-6" x="0" y="0">X</tspan><tspan class="cls-7" x="72.38" y="0">a</tspan><tspan class="cls-8" x="145.01" y="0">v</tspan><tspan x="216.36" y="0">ierMC</tspan></text>
  </g>
</svg>